<?xml version="1.0" encoding="UTF-8"?>
<svg width="512" height="512" version="1.1" viewBox="0 0 1866.7 1866.7" xmlns="http://www.w3.org/2000/svg"><path d="m986.41 52.421c-8.2274-62.391-76.314-72.991-100.2-10.548-7.0144 58.435 79.478 89.974 100.2 10.548zm131.85 221.51c-33.173 104.37-176.04 47.518-147.67-47.466 21.307-67.19 156.64-74.732 147.67 47.466zm-184.59 168.77c120.19-0.52739 227.78-11.181 268.97 73.835 12.13 25.051 6.065 58.594-5.274 84.383-19.303 26.317-35.968 31.064-58.013 36.918-1.424 26.528-1.0021 126.79 0 158.22 5.063 161.86 3.9555 227.68 42.192 263.7 115.45 96.46 288.17 224.67 369.18 406.09 22.942 51.316 68.561 181.05 26.37 242.6-103.11 150.52-379.41 158.22-632.87 158.22-228.52 0-451.08-29.798-532.67-63.287-156.11-64.078-170.4-149.94-94.931-332.26 91.872-221.98 405.14-391.54 400.82-453.56 5.0102-52.581-1.3185-194.71 5.2739-379.72-84.963-6.8034-89.393-132.38-15.822-179.31 21.359-13.607 56.009-15.347 79.109-15.822-21.201-16.771-25.157-83.961 26.37-116.03 29.692-21.834 92.083-19.461 121.3 21.096 18.512 33.279 16.138 68.983 0 94.931zm15.822 58.013c-133.38 0.47465-221.93-8.702-232.05 42.192-5.063 18.828 0.42191 43.405 47.466 42.192 24.155-0.36917 25.209 2.0568 36.918 15.822 6.4342 11.866 4.1664 29.692-15.822 36.918-1.0548 22.203 1.213 60.809 0 121.3-1.4767 73.413 3.7972 267.39-10.548 295.34-19.566 38.183-60.545 80.85-100.2 110.75-304.62 229.57-358.05 450.08-332.26 501.02 36.97 63.973 117.45 126.57 585.41 131.85 227.47 1.3713 543.48-6.8034 590.68-137.12 17.193-60.387-8.8075-175.73-216.23-400.82-66.874-72.517-183.22-132.32-216.23-205.68-8.1219-23.786-12.288-221.51-15.822-332.26v-84.383c-7.0144-3.3753-20.463-9.4404-15.822-31.644 6.2233-29.534 48.52-19.566 73.835-26.37 18.248-8.8075 13.343-55.535-5.274-63.287-24.524-14.556-57.117-10.179-174.04-15.822zm52.74 617.05c75.523 41.506 54.058 140.18 152.94 142.4 24.577-1.1603 43.141 3.0589 58.013 10.548 28.057 14.134 47.255 36.707 68.561 58.013 17.879 17.879 41.19 43.879 58.013 63.287 38.5 44.407 75.998 90.237 100.2 137.12 12.658 24.524 31.011 85.491 15.822 126.57-34.755 54.691-148.78 77.052-237.33 84.383-190.23 15.769-481.51 20.568-648.7-10.548-78.687-14.662-184.54-34.386-174.04-131.85 6.1178-36.179 21.729-87.126 94.931-179.31 39.344-49.575 98.201-124.68 168.77-158.22 22.625-4.4828 42.297 28.216 68.561 36.918 83.487 27.636 258.79-13.396 205.68-89.657-16.086-11.866-24.471-26.053-26.37-52.739 6.7506-41.031 62.285-59.279 94.931-36.918zm-163.49 221.51c-113.65 53.531-55.957 192.55 52.739 163.49 127.79-51.157 64.711-189.18-52.739-163.49zm268.97 158.22c79.215 32.488 88.497-38.605 68.561-58.013-42.666-48.837-122.14 11.497-68.561 58.013z" fill="#fff"/></svg>
