<?xml version="1.0" encoding="UTF-8"?>
<svg width="512" height="512" version="1.1" viewBox="0 0 1866.7 1866.7" xmlns="http://www.w3.org/2000/svg"><path d="m494.29 1661.5c-194.82 3.2667-271.19-64.432-332.3-191.49-70.965-147.56-12.334-220.72 78.85-337.93 25.176-32.385 74.344-79.132 95.747-112.64-32.385-38.411-46.296-130.84-28.161-191.49 63.249-211.88 296.93-303.85 416.78-321.03-139.62 101.49-108.25 244.83-101.38 270.34 44.776 166.82 186.71 125.15 242.18 95.747 54.463-39.312-9.631-172.63 5.6322-298.5 33.117-273.1 173.81-505.37 264.71-574.48-27.372 109.32-6.0827 210.81 11.264 259.08 65.784 183.16 212.11 300.98 230.92 416.78 27.71 170.6-40.27 279.47-33.793 422.41 37.341-54.238 115.18-60.208 146.44-123.91 42.241-86.003 7.2654-116.64 28.161-174.6 50.633 172.85 261.33 314.33 208.39 591.38-48.155 251.87-166.09 283.86-202.76 315.4-56.096 57.786-56.49 62.686-208.39 118.28-93.494 34.187-282.11 32.723-337.93-39.425-42.466 28.161-90.452 52.661-140.8 67.586-174.37 51.647-337.99-49.619-343.56-191.49zm608.27-799.77c-6.477 208.5-148.63 337.31-304.14 371.72-135.74 30.019-264.15-97.662-264.71-112.64-8.7862 52.604-25.176 82.849-39.425 101.38-38.242 49.732-56.716 129.99-11.264 197.13 14.869 23.148 69.501 73.781 123.91 45.057 52.83-27.879 68.994-10.532 78.85 11.264 11.49 59.814-37.51 84.257 50.689 135.17 167.78 33.173 78.625-78.85 230.92-61.954 183.5 201.8 451.42-34.919 428.04-247.82-17.967 23.993-39.538 46.465-107.01 78.85-75.302 25.795-152.18 37.961-197.13-61.954-24.838-55.308 8.7861-130.61 22.529-163.33 32.272-76.766 49.112-197.35-11.264-292.87z" fill="#fff"/></svg>
