<?xml version="1.0" encoding="UTF-8"?>
<svg width="512" height="512" version="1.1" viewBox="0 0 1866.7 1866.7" xmlns="http://www.w3.org/2000/svg"><g transform="matrix(5.4851 0 0 5.4851 -46.417 -45.975)" fill="#fff"><path id="Brain" d="m238 130.88c-9.06-2-16.69-0.63-19.25 3.24 0 0 2.63 2.07 7.25 1.54 4.25 0 22.1-3.62 19.59 9.34-0.28 1.47-0.83 2.68-1.49 4-0.76 1.5-3.36 3.93-4.41 5.19-1.32 1.58-2.13 1.62-3.71 4.07-9.86 0.12-15.48 4.49-17.81 1.7-3.36-3.52-5.04-7.15-10.29-10.08-4.05-2.27-11.04-2.36-13.88-3.58-7.3-3.13-9.33-11.01-8.91-18.3 0.22-3.74 1.6-10.91 3.63-13.98 4.77-7.2 19.91-12.01 28.28-12.94h12c9.53-0.03 17.29 3.13 26 6.57 5.08 2.01 8.17 1.19 12.96 4.91 7.6 5.89 14.19 21.83 11.61 31.44-0.94 3.49-5.75 6.91-7.21 10.55 4.91 1.18 9.02-7.09 14.64-8.21 8.39-1.67 19.38 3.91 22.94 11.66 0.96 2.07 2.28 5.52 1.42 7.77-1.48 3.89-7.07 3.05-10.36 3.32-7.27 0.46-14.92 3.38-19.91 6.46-2.57 1.58-8.39 7.26-11 7.54-3.25 0.35-3.99-3.49-5.82-5.73-2.48-3.03-5.91-7.09-8.77-9.55-4.17-3.57-10.8-4.04-10.71-10.81 0.1-6.86 9.02-9.56 5.96-18.94-3.5-9.56-7.94-5.68-12.75-7.18zm-79-23.45c6.63-0.82 15.96-1.59 20.26 4.67 4.39 4.9-0.63 11.25-0.39 16.81 0 0 0.31 9 0.31 9 0.12 3.66 0.39 4.13 0.91 6.91-1.91 0.27-4.04 1.23-5.54 2.27-1.55 1.03-2.74 3.86-4.55 4.14-3.78 0.6-5.84-4.07-11.09-5.78-5.21-1.69-15.1-2.87-20.46-1.72-6.3 1.34-9.14 6.61-13.2 2.94-5.1-4.91-3.65-14.29 0-19.67 7.68-12 20.17-17.34 33.75-19.57zm-50 29.08c7.73-0.26 9.06 5.74 11.12 12.74 1.01 1.94 1.94 0.94 2.26 2.94-1.82 2.69-4 6.62-6.63 12.06-4.44 7.94-0.31 11.81-8.56 10.87-3.6-0.78-6.7-4.79-10.07-6.37-3.56-1.68-7.18 0.63-10-4.5-0.56-3.37-0.78-5.57-0.3-8.25 1.94-10.82 12.06-17.27 22.18-19.49zm219.45 110.31c-2.73-1.84-6.88-2.65-8.95-5.04l-7.14-17.6c-3.59-5.68-9.53-12.92-16.97-14.66 0 0-5.69-1.61-9.39-0.37 0 0-6.91-7.06-15.74-9.67-2.35-0.96-4.79-0.49-3.53-2.93 1.25-3.36 8.27-8.72 11.27-10.83 12.04-8.47 26.08-14.45 40-5.59 8.29 5.28 8.18 8.6 11.45 15.78 3.78 5.18 9.94 11.4 12.92 17.09 5.25 10.03 8.4 31.1 5.01 42-0.78 2.5-2.1 4.73-3.38 7-7.91-12.82-8.93-10.74-15.55-15.18zm-36.36 39.57s4.08 2.57 1.69-1.3c-1.35-6.48 0.26-12.31 0.09-14.66-1.26-2.82-3.17-1.56-7.57-8.39-6.99-6.63-4.91-2.91-11.73-10.56-6.22-0.91-5.94-1.49-12.4-3.39-7.78-1.66-13.26 0.74-17.76 0.87-2.1-1.32-3.49-5.66-4.41-7.96l-6.57-20c-0.95-3.51-1.73-7.51 0.66-10.69 2.08-2.77 9.55-3.12 12.91-3.27l17-0.72c6.37 1.04 11.49 4.74 16.82 7.68 6.12 3.38 11.47 0.35 18.18 4.72 10.07 6.57 12.42 22.78 15.82 28.28 4.54 4.18 11.49 5.91 15.97 10.32 7.3 7.21 7.32 19.22 7.21 28.68-0.07 5.71-0.96 11.56-5.21 15.78-2.99 2.96-6 2.39-10.41 6.78-4.5 4.48-4.36 7.26-10.38 11.35-12.51 8.5-25.46 9.8-40 11.26-3.47 0.34-5.29 1.01-9 0.65-3.01-0.28-6.1-1.29-9-2.11-11.31-3.2-17.45-2.98-22.52-15.88-1.69-4.95-0.03-7.07-0.22-11.92-2.36-24.31-7.01-16.35-4.79-29.91 0.65-3.43 1.98-7.19 4.74-9.49 2.7-2.24 5.57-1.68 8.14-2.29 8.08-3.7 15.48-6.96 26.65-4.74 7.48 4.43 16.29 8.22 18.99 12.56 5.85 9.37-5.12 18.45-13.99 18.92-5.56 0.29-9.83-1.79-10.96-3.79 0.09-1.6-0.82-1.95-2.34-0.34-1.09 1.3-1.67 3.01-0.79 3.87 1.09 4.08 14.2 7.77 19.22 6.21 3.57-1.1 9.78-5.8 13.83-8.13l2.13 1.61zm-208.42-74.61c7.64 0.14 0.24 2.83-0.89 3.56-1.99 1.74-5.29 3.65-8.56 12.28-0.41 7.22-1.8 12.46 3.91 18.2 9.37 9.41 23.11 5.07 34.87 6.46 13.83 0.59 18 3.03 18 3.03 2.92-0.22 6.19-3.56 10-4.31-2.9-4.19-6.19-4.19-9.56-12.94-1.75-5.37-0.08-15.58 2.81-21.06 3.55-6.72 4.44-6.31 7.94-10.44 0-15.33 0.38-21.34-0.32-25.43-1.7-2.87-0.35-4.26 0.25-4.25 6.27-0.79 5.75 8.03 5.75 14.03 0.43 6.26-0.17 10.83-1.35 17.79-1.78 4.53-6.69 6.66-9.28 15.3-2.22 9.09 0.06 13.96 0.54 16 5.6 6.06 9.03 5.84 15.1 4.16 2.44-0.54 4.21 0.88 6.73-1.46 3.61-4.35 5.82-10.96 11.78-17.87 6.49-6.4 10.7-7.36 16.34-10.1-1.64-8.16-0.56-14.8-0.08-18.9 0.32-3.42-0.44-8.79 0.57-11.44 2.87-7.82 4.28 0.27 4.28 0.27l0.59 19.64s2.03 4.2 1.87 6.96c5.14-1.71 9.57-2.61 15.04-2.79 8.27-0.28 9.22-0.38 15.26-0.21-0.35-7.64 2.36-18.98 4.22-19.17 1.58 1.57-0.05 12.79 1.83 13.79 3.22 0.43 4.1-2.07 9.94-2.97 11.63-2.1 14.06 2.37 17.06-4.32 1.13-1.46 1.8-2.46 2.73-3.7-0.26-4.86-3.52-11.52-6.29-14.83-2.13-2.53-4.03-5.22-6.79-7.1-10.9-7.41-30.51-7.32-35.6 6.59-2.17-6.52-2.02-14.01-7.54-18.87-7.98-7.03-22.94-11.99-29.73-0.64-2.49 4.16-2.31 9.27-2.5 14.55-3.5-7.43-5.33-12.92-12.59-17.74-9.92-6.58-25.63-4.62-33.47 4.33-2.21 2.52-4.3 6.73-5.67 9.82-5.6 12.67-6.29 22.52-2.98 35.94-12.01 5.89-17.26 13.25-16.13 24.94-13.19-5.57 5.94-23.94 10.31-25.38 1.39-4-0.32-8.82-1.94-12.5-3.92-8.93-13.74-20.42-24.12-20.96-9.57-0.5-18.71 3.87-24.04 11.96l-7.66 15c-7.97 12.47-15.66 19.8-15.29 36 0.16 6.74 3.72 15.73 6.08 19-2.73 2.82-6.34 12-6.34 12-3.44 10.51-1.81 30.68 11.25 33.61 2.41 0.54 6.14 0.71 7.6-1.92-2.05-15.6 3.72-26.01 8.67-32.51 2.07-2.7 5.37-8.27 8.46-11.45 0 0-8.82-5.18-7.55-21.37 1.11-8.67 7.87-17.23 16.49-18.58zm112.33 90.87c0.83-2.61-1.17-3.52-2.65-3.22-5.35 1.88-7.44 6.36-7.52 12.18 0.18 2.76 1.3 5.48 1.28 8.22-3.01 5.42-13.48 8.98-19.11 10.81-14.87 4.85-32.84 1.95-42.35-11.64-9.21-13.16-5.97-37.49 2.98-50 6.11-8.53 14.33-12.59 23.55-16.91 4.47-2.1 8.25-3.13 13.43-4.13 1.82-8.09 8.12-14.6 8.12-14.6 6.34-7.27 19.48-16.14 29.27-17.19 4.02-0.43 6.17 0.09 10 0.55 5.72 0.68 9.27-0.59 13.61 4.39 3.51 4.02 5.79 16.32 7.89 22.08 0.82 2.25 3.39 6.28 2.72 8.59-0.66 2.24-6.22 2.49-11.22 7.31-5.6 5.46-4.42 11.06-7.39 12.87-2.78 1.7-6.51-1.61-9.34-2.41-10.72-3.06-14.77 3.2-16.46-11.61-4.75 4.44-2.83 8.53-4.54 10.67-3.05 3.79-12.96 5.62-17.45 8.12-6.83 3.79-15.18 13-14.82 20.27 7.18-0.45 7.72-10.74 19-16.22 13.4-6.5 25.66-9.84 39-1.23 5.2 3.35 8.06 6.54 9.8 12.45 3.05 8.33-0.8 15.9 0 21 0.65 8.39 4.4 10.75 8.2 17-2.95 1.43-5.66 2.61-9 2.74-8.13 0.32-26.09-5.48-29.26-13.74-1.31-3.4-1.91-10.22 2.26-16.35zm-78.73 16.9c-4.57 1.15-9.56 2.68-14.27 2.36-12.22-0.84-31.26-9.57-36.67-20.91-6.55-13.72-1.3-26.61 8.71-37 2.5-2.59 5.58-5.63 8.96-6.99 2.86-1.16 5.97-1.01 9-0.92l21.45 1.91c7.91 0.55 10.52-0.1 11.11 4.11 0.41 2.97-3.52 7.73-4.92 10.44-3.26 6.31-5.19 8.54-5.91 17.72-15.37 1.37-21.91-4.36-23.73-2.27 3.18 7.64 12.18 7.36 22.64 7.73l3.63 23.82z"/><path id="Beam" d="m85 24.43c4.83-0.55 9.84 0.11 13.79 3.27 4.37 3.49 5.53 9.9 0.98 13.79-3.49 2.99-7.61 2.23-11.77 2.68-3.7 0.4-22 2.56-40.73 22.74-11.27 11.64-15.82 22.45-20 35.64-1.34 3.39-1 6-3.09 11.45-5.45 5.82-11.73-1.03-13.3-3.81-1.91-3.39-2.66-7.64-2.35-11.19 3.02-18.09 16.82-39.5 21.47-44.91 18.65-18.01 34.65-26.34 55-29.66zm3 38.13c3.14-0.55 9.03-1.06 12 0 5.95 2.24 9.81 9.79 5.44 15.22-5.06 3.91-5.94 3.78-10.89 5.22-5.36 1.69-10.49 4.94-17.73 12.45-4.63 4.36-8.57 8.93-14 20-0.9 1.57-1.44 3.36-4.25 8.08-1.72 1.6-9.75 4.11-12.3-4.44-3.39-9.9 1.73-21.4 15.28-38.09 8.63-8.09 10.63-10.82 26.45-18.44zm12 31.09c11.58-2.37 14.5 5.56 11.54 11.31l-12.1 10.04c-2.45 2.77-7.98 11.91-11.48 13.26-5.38 2.08-14.07-2.23-10.83-11.26 3.33-9.27 13.76-19.73 22.87-23.35z"/></g></svg>
