<?xml version="1.0" encoding="UTF-8"?>
<svg width="512" height="512" version="1.1" viewBox="0 0 512 512" xmlns="http://www.w3.org/2000/svg"><g transform="matrix(1.3577 0 0 1.3577 34.43 0)" fill="#fff" stroke-width=".8"><path class="" d="m156.8 0-140.54 89.84 140.54-3.04z"/><path class="" d="m169.6 0v86.8l140.56 3.04z"/><path class="" d="m151.92 99.68-149.21 3.28 56.968 154.32z"/><path class="" d="m174.48 99.68 92.24 157.6 56.96-154.32z"/><path class="" d="m163.2 105.68-93.68 160.16h187.36z"/><path class="" d="m0 132.56v138.56l49.52-4.56z"/><path class="" d="m326.4 132.56-49.52 134 49.52 4.56z"/><path class="" d="m72.96 278.64 90.24 98.48 90.24-98.48z"/><path class="" d="m55.84 278.88-43.072 3.92 112.67 72.08z"/><path class="" d="m270.56 278.88-69.6 76 112.64-72.08z"/></g></svg>
