<?xml version="1.0" encoding="UTF-8"?>
<svg width="512" height="512" version="1.1" viewBox="0 0 1866.7 1866.7" xmlns="http://www.w3.org/2000/svg"><g transform="matrix(6.1478 0 0 6.1478 -163.27 -165.99)"><path id="Shield-Left" d="m158 55c14.81 9.41 74.19 40.33 82 46v173c-25.35-17.35-51.11-36.08-71-57-7.23-9.38-14.55-149-11-162z" fill="#666"/><path id="Shield-Right" d="m240 274c1-2.37-0.11-164.25 0-173 46.53-26.94 61.15-31.45 85-46 5.62-0.28-3.96 151.26-10 158-8.8 17.9-55.4 49.26-75 61z" fill="#fff"/><path id="Sword" d="m254 27c0.84 5.95-10.92 37.33-15 43-44.39 62.45-99.73 135.21-121 166 8.35 6.16 20.93 17.87 33 27 8.55-6.03 22.19 4.75 12 17-9.25 10.07-21.88 5.86-22-2-15.34-10.61-30.62-23.24-34-26-12.7 18.27-29.31 38.12-42 57-3.61 5.37-2.41 15.8-8 19-10.67 6.11-19.36 0.51-25-6-2.86-6.84-5.23-17.41 13-24 13.88-19.57 32.6-49.08 42-63-7.83-5.72-26.71-21.74-33-28-4.33 0.82-8.88-2.18-10-8-1.37-7.16 2.96-19.35 16-18 4.93 1.64 9.81 9.39 8 14 7.87 6.34 20.88 18.31 32 25 17.5-22.85 63.18-92.93 112-162 1.33-3.12 32.19-28.88 42-31z" fill="#fff"/></g></svg>
