<?xml version="1.0" encoding="UTF-8"?>
<svg width="512" height="512" version="1.1" viewBox="0 0 1866.7 1866.7" xmlns="http://www.w3.org/2000/svg"><path d="m168 5.303c141.64 78.538 607.25 314.68 774.24 377.84 188.26-69.204 626.76-293.36 758.33-383.14 23.81 43.591 64.007 946.11 37.121 1166.7-136.02 243.46-763.58 664.52-795.45 700-197.7-121.86-791.37-614.57-811.36-710.6-29.485-111.63 7.3712-935.98 37.121-1150.8zm774.24 510.42v1239.6c198.23-175.74 534.65-417.88 684.09-620.45 4.6666-245.53 0-969.13 0-969.13-213.34 126.69-484.32 257.46-684.09 350z" fill="#40d250"/></svg>
